<?xml version="1.0" encoding="UTF-8"?>
<svg version="1.1" xmlns="http://www.w3.org/2000/svg" width="500" height="500">
<path d="M0 0 C1.0725 0.7425 2.145 1.485 3.25 2.25 C0.99731862 4.76013069 -0.92592899 6.86085536 -4 8.3125 C-7.62294613 8.23016032 -10.09504526 6.87704944 -13.32421875 5.30859375 C-17.00947903 3.70037227 -20.80712467 2.95841259 -24.75 2.25 C-24.75 4.23 -24.75 6.21 -24.75 8.25 C-26.07 8.25 -27.39 8.25 -28.75 8.25 C-28.75 6.27 -28.75 4.29 -28.75 2.25 C-40.05951228 4.99421989 -50.0504448 8.5246082 -57.22265625 18.24609375 C-60.94821643 24.45536072 -62.83047585 31.31183172 -64.75 38.25 C-62.77 38.25 -60.79 38.25 -58.75 38.25 C-58.75 39.57 -58.75 40.89 -58.75 42.25 C-60.73 42.25 -62.71 42.25 -64.75 42.25 C-61.50357356 54.43364745 -57.46557201 64.89040384 -46.75 72.25 C-41.06133047 75.4789779 -35.15590272 77.09905767 -28.75 78.25 C-28.75 76.27 -28.75 74.29 -28.75 72.25 C-27.43 72.25 -26.11 72.25 -24.75 72.25 C-24.75 74.23 -24.75 76.21 -24.75 78.25 C-11.14289695 75.41806485 -2.40479831 70.73725734 5.89453125 59.4296875 C9.13873617 54.21278161 10.47499792 48.29501623 11.25 42.25 C9.27 42.25 7.29 42.25 5.25 42.25 C5.25 40.93 5.25 39.61 5.25 38.25 C7.23 38.25 9.21 38.25 11.25 38.25 C9.59048069 30.81987947 7.56606359 24.11082122 4.25 17.25 C6.23 14.94 8.21 12.63 10.25 10.25 C12.54630714 12.38794113 14.11583233 13.92519063 15.32592773 16.85473633 C16.94795835 19.36367615 16.94795835 19.36367615 19.0486145 19.71298218 C21.45183162 19.89437545 23.81269754 19.9155491 26.22265625 19.88671875 C27.10150986 19.89709671 27.98036346 19.90747467 28.885849 19.91816711 C31.69512915 19.9479046 34.50309048 19.94446409 37.3125 19.9375 C40.12511 19.94637864 42.93736481 19.96227769 45.74986267 19.9889679 C47.5004225 20.0039387 49.25112086 20.00765358 51.00172424 19.99919128 C57.02761621 20.02761621 57.02761621 20.02761621 59.25 22.25 C59.55426863 27.04080391 58.99091724 31.34530566 57.99658203 36.02392578 C57.79657593 36.97901535 57.79657593 36.97901535 57.5925293 37.95339966 C57.15457733 40.03557857 56.70647933 42.11541842 56.2578125 44.1953125 C55.94822872 45.65296168 55.63914465 47.11071708 55.33053589 48.568573 C54.68428482 51.6139057 54.03320256 54.65815113 53.37841797 57.70166016 C52.54107834 61.5947801 51.71404421 65.49000001 50.89038277 69.38603401 C50.25385493 72.39282971 49.61280515 75.39864686 48.97030258 78.40417099 C48.66374375 79.83998515 48.35836319 81.27605143 48.05420303 82.71237564 C47.62797884 84.72085434 47.19590208 86.72798637 46.76220703 88.73486328 C46.51793976 89.8751297 46.27367249 91.01539612 46.02200317 92.19021606 C44.26071683 99.17095895 44.26071683 99.17095895 41.57220459 102.04121399 C38.32142749 103.73335339 35.75202679 103.60949324 32.09472656 103.59057617 C31.02583443 103.59123329 31.02583443 103.59123329 29.93534851 103.59190369 C27.58682579 103.58981851 25.23902255 103.5665012 22.890625 103.54296875 C21.25966787 103.53737181 19.62870568 103.53310217 17.9977417 103.53010559 C13.71012386 103.51866449 9.42281207 103.48920378 5.13531494 103.45599365 C0.75822082 103.42527685 -3.61892286 103.41159682 -7.99609375 103.39648438 C-16.58086943 103.36433324 -25.16539662 103.31314595 -33.75 103.25 C-33.87117188 102.62931641 -33.99234375 102.00863281 -34.1171875 101.36914062 C-34.28476563 100.55638672 -34.45234375 99.74363281 -34.625 98.90625 C-34.78742188 98.09994141 -34.94984375 97.29363281 -35.1171875 96.46289062 C-35.95887461 93.51958353 -37.32446523 92.06915108 -39.75 90.25 C-42.86888678 88.69055661 -45.2954145 88.96683725 -48.75 89.25 C-54.56869982 91.4805016 -58.32579171 95.22130388 -60.984375 100.875 C-62.75 103.25 -62.75 103.25 -65.5625 103.87890625 C-66.614375 103.85699219 -67.66625 103.83507812 -68.75 103.8125 C-70.3278125 103.81443359 -70.3278125 103.81443359 -71.9375 103.81640625 C-74.75 103.25 -74.75 103.25 -76.6875 101.65234375 C-78.17024635 98.29981064 -77.35007781 95.79899469 -76.75 92.25 C-77.34246521 92.25888245 -77.93493042 92.26776489 -78.54534912 92.2769165 C-84.70949662 92.36538296 -90.87346393 92.42573126 -97.03808594 92.46972656 C-99.33894169 92.48984688 -101.63974629 92.51714634 -103.94042969 92.55175781 C-107.24687317 92.60025612 -110.55264085 92.62296478 -113.859375 92.640625 C-114.88867126 92.66127014 -115.91796753 92.68191528 -116.97845459 92.70318604 C-124.08950582 92.70542236 -124.08950582 92.70542236 -127.44238281 90.39355469 C-128.75 88.25 -128.75 88.25 -128.5625 85.5625 C-127.75 83.25 -127.75 83.25 -126.75 82.25 C-124.741596 82.13150896 -122.72906072 82.08258868 -120.71728516 82.06054688 C-119.42569489 82.04382935 -118.13410461 82.02711182 -116.80337524 82.0098877 C-116.10867756 82.00320572 -115.41397987 81.99652374 -114.69823074 81.98963928 C-112.52972783 81.96865969 -110.36137664 81.94163163 -108.19296265 81.91296387 C-103.58703315 81.85317288 -98.98103313 81.80108908 -94.375 81.75 C-89.04577179 81.69079098 -83.71661764 81.62845269 -78.38752365 81.55812073 C-76.24987904 81.53153993 -74.11222711 81.51072586 -71.97451782 81.4901123 C-70.67662323 81.47339478 -69.37872864 81.45667725 -68.04150391 81.43945312 C-66.32394394 81.42066101 -66.32394394 81.42066101 -64.57168579 81.40148926 C-61.67050186 81.37067496 -61.67050186 81.37067496 -58.75 80.25 C-59.32344937 77.38275314 -59.6114515 76.3885485 -61.75 74.25 C-64.51936496 74.02863151 -67.19658493 73.92470387 -69.96875 73.90625 C-70.78243042 73.8916272 -71.59611084 73.87700439 -72.43444824 73.86193848 C-75.03958232 73.81534908 -77.64463871 73.78119331 -80.25 73.75 C-83.6773706 73.70896499 -87.10419406 73.65533826 -90.53125 73.59375 C-91.32398315 73.5884729 -92.11671631 73.5831958 -92.93347168 73.57775879 C-98.52439638 73.47560362 -98.52439638 73.47560362 -100.75 71.25 C-101 68.25 -101 68.25 -100.75 65.25 C-97.95822431 62.45822431 -96.11816428 62.93786516 -92.2109375 62.8359375 C-90.90898437 62.79726562 -89.60703125 62.75859375 -88.265625 62.71875 C-86.88542138 62.68729237 -85.50521296 62.65604509 -84.125 62.625 C-82.73695459 62.58682066 -81.34893289 62.54776895 -79.9609375 62.5078125 C-76.55742815 62.41327057 -73.15392835 62.32772103 -69.75 62.25 C-70.74 59.94 -71.73 57.63 -72.75 55.25 C-74.01183105 55.23018066 -75.27366211 55.21036133 -76.57373047 55.18994141 C-81.24418492 55.11401235 -85.9143226 55.02527588 -90.58447266 54.93261719 C-92.60784666 54.89427479 -94.63129006 54.85943129 -96.65478516 54.828125 C-99.55917203 54.78258831 -102.46307894 54.72457591 -105.3671875 54.6640625 C-106.27556366 54.65251129 -107.18393982 54.64096008 -108.11984253 54.62905884 C-109.38092331 54.5992543 -109.38092331 54.5992543 -110.66748047 54.56884766 C-111.40916473 54.55552399 -112.150849 54.54220032 -112.91500854 54.5284729 C-114.75 54.25 -114.75 54.25 -116.75 52.25 C-117 49.25 -117 49.25 -116.75 46.25 C-113.66356227 43.16356227 -109.95240583 43.89134992 -105.8046875 43.8359375 C-104.47716965 43.80688828 -104.47716965 43.80688828 -103.12283325 43.7772522 C-100.29032084 43.71737277 -97.45776797 43.67103787 -94.625 43.625 C-92.70701332 43.58682789 -90.78904393 43.54777662 -88.87109375 43.5078125 C-84.16420252 43.41166445 -79.45723104 43.32766458 -74.75 43.25 C-74.42 40.61 -74.09 37.97 -73.75 35.25 C-74.49685059 35.26047363 -75.24370117 35.27094727 -76.01318359 35.28173828 C-79.38375508 35.3232077 -82.754273 35.34929729 -86.125 35.375 C-87.300625 35.39175781 -88.47625 35.40851563 -89.6875 35.42578125 C-91.36972656 35.43544922 -91.36972656 35.43544922 -93.0859375 35.4453125 C-94.12282715 35.45578613 -95.1597168 35.46625977 -96.22802734 35.47705078 C-98.75 35.25 -98.75 35.25 -100.75 33.25 C-101 30.25 -101 30.25 -100.75 27.25 C-98.75 25.25 -98.75 25.25 -96.04443359 25.02294922 C-94.92375488 25.03342285 -93.80307617 25.04389648 -92.6484375 25.0546875 C-91.43671875 25.06113281 -90.225 25.06757813 -88.9765625 25.07421875 C-87.70554688 25.09097656 -86.43453125 25.10773438 -85.125 25.125 C-83.84625 25.13402344 -82.5675 25.14304688 -81.25 25.15234375 C-78.08314833 25.17597697 -74.91666576 25.20892371 -71.75 25.25 C-71.44892334 24.30979004 -71.14784668 23.36958008 -70.83764648 22.40087891 C-69.79828007 19.38986589 -68.61882986 17.2264827 -66.8125 14.625 C-66.30847656 13.89023438 -65.80445313 13.15546875 -65.28515625 12.3984375 C-64.52525391 11.33496094 -64.52525391 11.33496094 -63.75 10.25 C-63.23308594 9.49976563 -62.71617187 8.74953125 -62.18359375 7.9765625 C-61.47396484 7.12191406 -61.47396484 7.12191406 -60.75 6.25 C-60.09 6.25 -59.43 6.25 -58.75 6.25 C-58.75 5.59 -58.75 4.93 -58.75 4.25 C-42.40563889 -9.56769659 -18.07412738 -11.03307602 0 0 Z " fill="#2146A9" transform="translate(263.75,174.75)"/>
<path d="M0 0 C1.0725 0.7425 2.145 1.485 3.25 2.25 C0.99731862 4.76013069 -0.92592899 6.86085536 -4 8.3125 C-7.62294613 8.23016032 -10.09504526 6.87704944 -13.32421875 5.30859375 C-17.00947903 3.70037227 -20.80712467 2.95841259 -24.75 2.25 C-24.75 4.23 -24.75 6.21 -24.75 8.25 C-26.07 8.25 -27.39 8.25 -28.75 8.25 C-28.75 6.27 -28.75 4.29 -28.75 2.25 C-40.05951228 4.99421989 -50.0504448 8.5246082 -57.22265625 18.24609375 C-60.94821643 24.45536072 -62.83047585 31.31183172 -64.75 38.25 C-62.77 38.25 -60.79 38.25 -58.75 38.25 C-58.75 39.57 -58.75 40.89 -58.75 42.25 C-60.73 42.25 -62.71 42.25 -64.75 42.25 C-61.50357356 54.43364745 -57.46557201 64.89040384 -46.75 72.25 C-41.06133047 75.4789779 -35.15590272 77.09905767 -28.75 78.25 C-28.75 76.27 -28.75 74.29 -28.75 72.25 C-27.43 72.25 -26.11 72.25 -24.75 72.25 C-24.75 74.23 -24.75 76.21 -24.75 78.25 C-11.14289695 75.41806485 -2.40479831 70.73725734 5.89453125 59.4296875 C9.13873617 54.21278161 10.47499792 48.29501623 11.25 42.25 C9.27 42.25 7.29 42.25 5.25 42.25 C5.25 40.93 5.25 39.61 5.25 38.25 C7.23 38.25 9.21 38.25 11.25 38.25 C9.59048069 30.81987947 7.56606359 24.11082122 4.25 17.25 C6.23 14.94 8.21 12.63 10.25 10.25 C17.76098074 17.24298207 20.4513796 26.5447515 21.64453125 36.5625 C22.12789885 51.17094308 16.99569861 64.19734235 7.25 74.9375 C-2.58849092 84.3424303 -15.60966524 88.73891944 -29.05078125 88.49609375 C-39.18061687 87.82219761 -46.69692737 85.36966271 -54.75 79.25 C-56.2040625 78.38375 -56.2040625 78.38375 -57.6875 77.5 C-59.75 76.25 -59.75 76.25 -61.75 74.25 C-64.51936496 74.02863151 -67.19658493 73.92470387 -69.96875 73.90625 C-70.78243042 73.8916272 -71.59611084 73.87700439 -72.43444824 73.86193848 C-75.03958232 73.81534908 -77.64463871 73.78119331 -80.25 73.75 C-83.6773706 73.70896499 -87.10419406 73.65533826 -90.53125 73.59375 C-91.32398315 73.5884729 -92.11671631 73.5831958 -92.93347168 73.57775879 C-98.52439638 73.47560362 -98.52439638 73.47560362 -100.75 71.25 C-101 68.25 -101 68.25 -100.75 65.25 C-97.95822431 62.45822431 -96.11816428 62.93786516 -92.2109375 62.8359375 C-90.90898437 62.79726562 -89.60703125 62.75859375 -88.265625 62.71875 C-86.88542138 62.68729237 -85.50521296 62.65604509 -84.125 62.625 C-82.73695459 62.58682066 -81.34893289 62.54776895 -79.9609375 62.5078125 C-76.55742815 62.41327057 -73.15392835 62.32772103 -69.75 62.25 C-70.74 59.94 -71.73 57.63 -72.75 55.25 C-74.01183105 55.23018066 -75.27366211 55.21036133 -76.57373047 55.18994141 C-81.24418492 55.11401235 -85.9143226 55.02527588 -90.58447266 54.93261719 C-92.60784666 54.89427479 -94.63129006 54.85943129 -96.65478516 54.828125 C-99.55917203 54.78258831 -102.46307894 54.72457591 -105.3671875 54.6640625 C-106.27556366 54.65251129 -107.18393982 54.64096008 -108.11984253 54.62905884 C-108.96056305 54.60918915 -109.80128357 54.58931946 -110.66748047 54.56884766 C-111.40916473 54.55552399 -112.150849 54.54220032 -112.91500854 54.5284729 C-114.75 54.25 -114.75 54.25 -116.75 52.25 C-117 49.25 -117 49.25 -116.75 46.25 C-113.66356227 43.16356227 -109.95240583 43.89134992 -105.8046875 43.8359375 C-104.47716965 43.80688828 -104.47716965 43.80688828 -103.12283325 43.7772522 C-100.29032084 43.71737277 -97.45776797 43.67103787 -94.625 43.625 C-92.70701332 43.58682789 -90.78904393 43.54777662 -88.87109375 43.5078125 C-84.16420252 43.41166445 -79.45723104 43.32766458 -74.75 43.25 C-74.42 40.61 -74.09 37.97 -73.75 35.25 C-74.49685059 35.26047363 -75.24370117 35.27094727 -76.01318359 35.28173828 C-79.38375508 35.3232077 -82.754273 35.34929729 -86.125 35.375 C-87.300625 35.39175781 -88.47625 35.40851563 -89.6875 35.42578125 C-91.36972656 35.43544922 -91.36972656 35.43544922 -93.0859375 35.4453125 C-94.12282715 35.45578613 -95.1597168 35.46625977 -96.22802734 35.47705078 C-98.75 35.25 -98.75 35.25 -100.75 33.25 C-101 30.25 -101 30.25 -100.75 27.25 C-98.75 25.25 -98.75 25.25 -96.04443359 25.02294922 C-94.92375488 25.03342285 -93.80307617 25.04389648 -92.6484375 25.0546875 C-90.83085937 25.06435547 -90.83085937 25.06435547 -88.9765625 25.07421875 C-87.70554688 25.09097656 -86.43453125 25.10773438 -85.125 25.125 C-83.84625 25.13402344 -82.5675 25.14304688 -81.25 25.15234375 C-78.08314833 25.17597697 -74.91666576 25.20892371 -71.75 25.25 C-71.44892334 24.30979004 -71.14784668 23.36958008 -70.83764648 22.40087891 C-69.79828007 19.38986589 -68.61882986 17.2264827 -66.8125 14.625 C-66.30847656 13.89023438 -65.80445313 13.15546875 -65.28515625 12.3984375 C-64.77855469 11.68945312 -64.27195313 10.98046875 -63.75 10.25 C-63.23308594 9.49976563 -62.71617187 8.74953125 -62.18359375 7.9765625 C-61.71050781 7.40679687 -61.23742187 6.83703125 -60.75 6.25 C-60.09 6.25 -59.43 6.25 -58.75 6.25 C-58.75 5.59 -58.75 4.93 -58.75 4.25 C-42.40563889 -9.56769659 -18.07412738 -11.03307602 0 0 Z " fill="#010205" transform="translate(263.75,174.75)"/>
<path d="M0 0 C3.25985396 -0.15747447 6.51339329 -0.25624101 9.77661133 -0.31323242 C11.46367187 -0.41861328 11.46367187 -0.41861328 13.18481445 -0.52612305 C21.31522791 -0.6647368 21.31522791 -0.6647368 24.76855469 2.49072266 C26.59984323 5.07880779 28.11135559 7.69598532 29.58911133 10.49926758 C30.4889806 11.93934075 31.39838466 13.37352352 32.31958008 14.80004883 C33.5606743 16.8165834 34.79282917 18.83839123 36.0246582 20.8605957 C37.85648741 23.83622952 39.62467962 26.54129734 41.88989258 29.21801758 C43.80764915 31.79266088 44.04231666 32.57664599 43.58911133 35.68676758 C43.29546912 37.630679 42.95395752 39.56745376 42.58911133 41.49926758 C42.4647168 42.20470703 42.34032227 42.91014648 42.2121582 43.63696289 C41.78168349 46.03460696 41.31596393 48.42293796 40.83911133 50.81176758 C40.69473633 51.58866943 40.55036133 52.36557129 40.40161133 53.16601562 C39.30899743 58.26175978 37.91579523 61.24621847 33.58911133 64.49926758 C30.7334372 65.12223314 28.54918707 64.75012145 25.58911133 64.49926758 C25.43055664 63.88438477 25.27200195 63.26950195 25.10864258 62.63598633 C23.65671954 57.49297392 23.65671954 57.49297392 20.33911133 53.43676758 C16.07083672 51.98167396 12.35985657 51.77280799 8.15161133 53.49926758 C7.37817383 53.99426758 7.37817383 53.99426758 6.58911133 54.49926758 C8.07411133 54.00426758 8.07411133 54.00426758 9.58911133 53.49926758 C16.69173663 52.92647522 16.69173663 52.92647522 20.52661133 55.37426758 C23.91912506 58.86958475 23.93442638 61.47773649 23.86645508 66.18286133 C23.2785391 71.09320183 20.47855051 73.75133008 16.83911133 76.81176758 C13.01506587 78.79732964 9.90179621 79.72263373 5.58911133 79.49926758 C2.36717633 78.36562378 0.37590743 77.46488098 -1.78588867 74.81176758 C-2.72662945 71.33102671 -2.53088367 68.09911739 -2.41088867 64.49926758 C-6.70088867 64.49926758 -10.99088867 64.49926758 -15.41088867 64.49926758 C-16.32685547 59.91943361 -16.38610465 58.17517742 -15.45458984 53.83862305 C-15.22072067 52.72752167 -14.9868515 51.61642029 -14.74589539 50.47164917 C-14.48452286 49.28193512 -14.22315033 48.09222107 -13.95385742 46.86645508 C-13.69083328 45.63766632 -13.42780914 44.40887756 -13.15681458 43.14285278 C-12.59900669 40.547773 -12.03745277 37.95386856 -11.46923828 35.36108398 C-10.74178261 32.04011286 -10.02892231 28.71621745 -9.32078075 25.39108086 C-8.64277593 22.21473221 -7.95428778 19.04066646 -7.26635742 15.86645508 C-7.01105759 14.67269257 -6.75575775 13.47893005 -6.49272156 12.24899292 C-6.2493959 11.14419586 -6.00607025 10.0393988 -5.75537109 8.90112305 C-5.5436174 7.92803192 -5.33186371 6.9549408 -5.11369324 5.95236206 C-4.16469543 2.63994577 -3.53610214 0.73228647 0 0 Z M2.58911133 55.49926758 C1.92911133 56.81926758 1.26911133 58.13926758 0.58911133 59.49926758 C1.90911133 58.17926758 3.22911133 56.85926758 4.58911133 55.49926758 C3.92911133 55.49926758 3.26911133 55.49926758 2.58911133 55.49926758 Z M-1.41088867 60.49926758 C-0.41088867 62.49926758 -0.41088867 62.49926758 -0.41088867 62.49926758 Z M4.58911133 65.49926758 C4.24803772 68.21169191 4.24803772 68.21169191 5.58911133 70.49926758 C7.8460756 72.08539259 7.8460756 72.08539259 10.58911133 72.49926758 C13.9325113 71.44848473 14.58413445 70.50673289 16.58911133 67.49926758 C16.92254684 64.95718786 16.92254684 64.95718786 16.58911133 62.49926758 C14.77493424 60.30953261 14.77493424 60.30953261 12.27661133 60.06176758 C8.36699884 60.69821612 6.93680131 62.39203084 4.58911133 65.49926758 Z " fill="#2246A4" transform="translate(325.410888671875,211.500732421875)"/>
<path d="M0 0 C0.99 0.33 1.98 0.66 3 1 C2.50113281 1.52464844 2.00226563 2.04929688 1.48828125 2.58984375 C-13.79556874 19.08103557 -26.18700338 37.93611553 -38 57 C-42.17584176 53.74080643 -45.63462477 50.29510144 -49.0546875 46.25390625 C-50.47978405 44.60274017 -51.95030634 42.99048927 -53.4453125 41.40234375 C-54.26773438 40.52707031 -55.09015625 39.65179688 -55.9375 38.75 C-56.70964844 37.94046875 -57.48179687 37.1309375 -58.27734375 36.296875 C-60 34 -60 34 -60 30 C-58.75 28.1875 -58.75 28.1875 -57 27 C-53.06947813 27.37926088 -50.7127083 29.60657075 -47.75 32.0625 C-46.41195312 33.16271484 -46.41195312 33.16271484 -45.046875 34.28515625 C-44.37140625 34.85105469 -43.6959375 35.41695312 -43 36 C-38.9008319 34.38961253 -36.23853442 31.42144808 -33.25 28.3125 C-28.67000815 23.64538874 -24.01828653 19.19878653 -19 15 C-17.55947266 13.77796875 -17.55947266 13.77796875 -16.08984375 12.53125 C-4.68092482 2.88823021 -4.68092482 2.88823021 0 0 Z " fill="#0649A6" transform="translate(276,174)"/>
<path d="M0 0 C1.48831242 0.00667405 2.97660807 0.01863442 4.46484375 0.03515625 C5.22345703 0.03966797 5.98207031 0.04417969 6.76367188 0.04882812 C8.64326246 0.06064945 10.52281274 0.07858547 12.40234375 0.09765625 C13.74822701 2.6542336 15.07909703 5.2168953 16.40234375 7.78515625 C16.78390625 8.50638672 17.16546875 9.22761719 17.55859375 9.97070312 C21.137674 16.96908326 21.137674 16.96908326 20.40234375 21.09765625 C18.40234375 23.09765625 18.40234375 23.09765625 15.80444336 23.34057617 C14.73202393 23.33646729 13.65960449 23.3323584 12.5546875 23.328125 C11.39259766 23.32619141 10.23050781 23.32425781 9.03320312 23.32226562 C7.81439453 23.31001953 6.59558594 23.29777344 5.33984375 23.28515625 C3.50583008 23.28418945 3.50583008 23.28418945 1.63476562 23.28320312 C-7.45754569 23.23776681 -7.45754569 23.23776681 -8.59765625 22.09765625 C-8.43890063 0.22906896 -8.43890063 0.22906896 0 0 Z " fill="#000105" transform="translate(331.59765625,217.90234375)"/>
<path d="M0 0 C1.72447904 0.00031742 3.44897767 0.01165954 5.17333984 0.03173828 C6.53415176 0.03598312 6.53415176 0.03598312 7.92245483 0.04031372 C10.82652857 0.05152926 13.73029646 0.07663615 16.63427734 0.10205078 C18.60041873 0.11207881 20.56656494 0.12120497 22.53271484 0.12939453 C27.35835393 0.15147306 32.18376374 0.18601213 37.00927734 0.22705078 C38.16702795 3.70030259 38.07794386 6.58772526 38.00927734 10.22705078 C32.06446553 10.27639477 26.11977226 10.3127436 20.17480469 10.33691406 C18.15134607 10.34698749 16.12790207 10.36064673 14.10449219 10.37792969 C11.20032145 10.40211925 8.29634274 10.41352027 5.39208984 10.42236328 C4.0295256 10.43784714 4.0295256 10.43784714 2.63943481 10.4536438 C1.79871429 10.45379486 0.95799377 10.45394592 0.09179688 10.45410156 C-1.02072952 10.4607634 -1.02072952 10.4607634 -2.1557312 10.46755981 C-3.99072266 10.22705078 -3.99072266 10.22705078 -5.99072266 8.22705078 C-6.24072266 5.22705078 -6.24072266 5.22705078 -5.99072266 2.22705078 C-3.99072266 0.22705078 -3.99072266 0.22705078 0 0 Z " fill="#2247A7" transform="translate(152.99072265625,218.77294921875)"/>
<path d="M0 0 C2.81008123 2.3937729 3.60397688 4.95882051 4.6875 8.4375 C4.90911304 14.53185874 2.38324782 17.53027155 -1.5234375 21.8359375 C-5.30187595 25.2183824 -9.90074472 24.77687161 -14.70703125 24.70703125 C-17.3125 24.4375 -17.3125 24.4375 -19.9375 22.9375 C-21.84702331 19.46563943 -22.6106849 16.35650159 -22.3125 12.4375 C-20.6749325 7.12022199 -18.03750773 3.46635111 -13.3125 0.4375 C-8.89493245 -1.03502252 -4.5016662 -1.09499989 0 0 Z M-12.625 8.0625 C-14.74206587 11.04207419 -14.63773926 12.85986811 -14.3125 16.4375 C-12.09473378 17.74264736 -12.09473378 17.74264736 -9.3125 18.4375 C-6.43795364 17.66306103 -6.43795364 17.66306103 -4.3125 15.4375 C-3.24033361 11.93471894 -3.24033361 11.93471894 -3.3125 8.4375 C-5.13022804 6.22765749 -5.13022804 6.22765749 -7.6875 6.0625 C-10.41723168 6.2500254 -10.41723168 6.2500254 -12.625 8.0625 Z " fill="#25459B" transform="translate(224.3125,265.5625)"/>
<path d="M0 0 C2.17465009 -0.0268894 4.34440223 -0.10174498 6.51782227 -0.17749023 C16.61190132 -0.3674149 16.61190132 -0.3674149 19.97436523 2.02807617 C22.06957862 4.8337567 22.87915039 7.04077117 22.87915039 10.53540039 C17.78883284 10.58476197 12.69865396 10.62110144 7.6081543 10.64526367 C5.87570774 10.65533415 4.14327823 10.66899128 2.41088867 10.6862793 C-0.076296 10.71048201 -2.56325636 10.72187278 -5.05053711 10.73071289 C-5.82767059 10.74103546 -6.60480408 10.75135803 -7.40548706 10.76199341 C-9.31210454 10.7623931 -11.21815997 10.65772179 -13.12084961 10.53540039 C-15.12084961 8.53540039 -15.12084961 8.53540039 -15.37084961 5.53540039 C-14.73559589 -2.08764421 -5.89965558 0.04846122 0 0 Z " fill="#2146A9" transform="translate(178.120849609375,237.464599609375)"/>
<path d="M0 0 C1.12067871 0.01047363 2.24135742 0.02094727 3.39599609 0.03173828 C5.21357422 0.04140625 5.21357422 0.04140625 7.06787109 0.05126953 C8.33888672 0.06802734 9.60990234 0.08478516 10.91943359 0.10205078 C12.19818359 0.11107422 13.47693359 0.12009766 14.79443359 0.12939453 C17.96128526 0.15302775 21.12776783 0.18597449 24.29443359 0.22705078 C23.63443359 3.52705078 22.97443359 6.82705078 22.29443359 10.22705078 C18.16949208 10.28489786 14.04465415 10.32059485 9.91943359 10.35205078 C8.74380859 10.36880859 7.56818359 10.38556641 6.35693359 10.40283203 C4.67470703 10.4125 4.67470703 10.4125 2.95849609 10.42236328 C1.92160645 10.43283691 0.8847168 10.44331055 -0.18359375 10.45410156 C-2.70556641 10.22705078 -2.70556641 10.22705078 -4.70556641 8.22705078 C-4.95556641 5.22705078 -4.95556641 5.22705078 -4.70556641 2.22705078 C-2.70556641 0.22705078 -2.70556641 0.22705078 0 0 Z " fill="#2247A9" transform="translate(167.70556640625,199.77294921875)"/>
<path d="M0 0 C1.28970703 0.30744141 1.28970703 0.30744141 2.60546875 0.62109375 C10.77310032 2.48263682 18.61994382 3.59630959 27 4 C27 4.33 27 4.66 27 5 C24.03 5 21.06 5 18 5 C17.67 5.66 17.34 6.32 17 7 C16.34 6.67 15.68 6.34 15 6 C15.33 9.96 15.66 13.92 16 18 C39.1 18 62.2 18 86 18 C86 18.33 86 18.66 86 19 C61.91 19 37.82 19 13 19 C12.34 16.03 11.68 13.06 11 10 C8.1375787 5.86539145 4.79100241 5.10561594 0 4 C0 2.68 0 1.36 0 0 Z " fill="#294996" transform="translate(217,259)"/>
<path d="M0 0 C0.69416016 -0.020625 1.38832031 -0.04125 2.10351562 -0.0625 C4.12109375 -0.078125 4.12109375 -0.078125 7.5625 0.25 C9.5625 3.25 9.5625 3.25 9.3125 6.375 C9.065 7.32375 8.8175 8.2725 8.5625 9.25 C5.59394127 10.73427936 2.86338341 10.45941537 -0.4375 10.5 C-1.695625 10.52578125 -2.95375 10.5515625 -4.25 10.578125 C-5.301875 10.46984375 -6.35375 10.3615625 -7.4375 10.25 C-9.4375 7.25 -9.4375 7.25 -9.125 4.125 C-7.86290698 -1.15284352 -4.74178959 0.03502707 0 0 Z " fill="#2046AA" transform="translate(140.4375,237.75)"/>
<path d="M0 0 C1.86978516 0.05994141 1.86978516 0.05994141 3.77734375 0.12109375 C5.02644531 0.14300781 6.27554688 0.16492188 7.5625 0.1875 C10.71484375 0.55859375 10.71484375 0.55859375 12.71484375 2.55859375 C12.96484375 5.55859375 12.96484375 5.55859375 12.71484375 8.55859375 C10.71484375 10.55859375 10.71484375 10.55859375 7.23828125 10.75390625 C5.85533407 10.74060868 4.47245721 10.71675607 3.08984375 10.68359375 C2.3834375 10.67457031 1.67703125 10.66554687 0.94921875 10.65625 C-0.79571723 10.63266978 -2.5404792 10.59679836 -4.28515625 10.55859375 C-5.47265625 8.37109375 -5.47265625 8.37109375 -6.28515625 5.55859375 C-4.95500101 1.59039005 -4.17180628 0.70935588 0 0 Z " fill="#2546A0" transform="translate(143.28515625,199.44140625)"/>
<path d="M0 0 C2.64 0 5.28 0 8 0 C8 1.32 8 2.64 8 4 C6.02 4 4.04 4 2 4 C2 4.66 2 5.32 2 6 C1.2884375 6.556875 1.2884375 6.556875 0.5625 7.125 C-1.91815779 10.10178935 -1.68762481 13.18902265 -2 17 C-1.01 17.33 -0.02 17.66 1 18 C1.6875 20.0625 1.6875 20.0625 2 22 C0.68 22 -0.64 22 -2 22 C-2 21.34 -2 20.68 -2 20 C-3.65 20 -5.3 20 -7 20 C-9.02901001 15.94197998 -9.30073579 13.36675586 -8 9 C-6 6.8125 -6 6.8125 -4 5 C-3.67 4.01 -3.34 3.02 -3 2 C-2.34 2 -1.68 2 -1 2 C-0.67 1.34 -0.34 0.68 0 0 Z " fill="#2246A7" transform="translate(212,267)"/>
<path d="M0 0 C0.99 0.33 1.98 0.66 3 1 C2.47792969 1.55945313 1.95585937 2.11890625 1.41796875 2.6953125 C-3.84618079 8.42964001 -8.72669565 14.34802865 -13.45629883 20.52783203 C-14.6167198 22.03481256 -15.80560408 23.5198022 -17 25 C-17.33 25 -17.66 25 -18 25 C-18.08886184 21.80097361 -17.91058531 19.07322544 -17 16 C-17.66 15.67 -18.32 15.34 -19 15 C-4.66839853 2.88050122 -4.66839853 2.88050122 0 0 Z " fill="#0D499D" transform="translate(276,174)"/>
<path d="M0 0 C0.66 0 1.32 0 2 0 C6.32325376 8.64650753 3.67948926 21.99183034 2 31 C1.67 31 1.34 31 1 31 C0.731875 32.03125 0.46375 33.0625 0.1875 34.125 C-0.82360272 37.6531031 -2.17286461 40.80251308 -4 44 C-4.99 44.495 -4.99 44.495 -6 45 C-6.474375 45.825 -6.94875 46.65 -7.4375 47.5 C-9 50 -9 50 -12 51 C-12.33 51.99 -12.66 52.98 -13 54 C-16.5625 55.1875 -16.5625 55.1875 -20 56 C-18.9790625 54.9790625 -18.9790625 54.9790625 -17.9375 53.9375 C-17.48117187 53.4734375 -17.02484375 53.009375 -16.5546875 52.53125 C-15.50702403 51.49938045 -14.42729114 50.49921271 -13.3203125 49.53125 C-4.55868082 41.58737061 0.46072575 29.42865681 1.2109375 17.703125 C1.27983532 11.72279384 0.92643007 5.90599167 0 0 Z " fill="#243F8C" transform="translate(283,200)"/>
<path d="M0 0 C1.72447904 0.00031742 3.44897767 0.01165954 5.17333984 0.03173828 C6.53415176 0.03598312 6.53415176 0.03598312 7.92245483 0.04031372 C10.82652857 0.05152926 13.73029646 0.07663615 16.63427734 0.10205078 C18.60041873 0.11207881 20.56656494 0.12120497 22.53271484 0.12939453 C27.35835393 0.15147306 32.18376374 0.18601213 37.00927734 0.22705078 C38.16702795 3.70030259 38.07794386 6.58772526 38.00927734 10.22705078 C32.06446553 10.27639477 26.11977226 10.3127436 20.17480469 10.33691406 C18.15134607 10.34698749 16.12790207 10.36064673 14.10449219 10.37792969 C11.20032145 10.40211925 8.29634274 10.41352027 5.39208984 10.42236328 C4.0295256 10.43784714 4.0295256 10.43784714 2.63943481 10.4536438 C1.79871429 10.45379486 0.95799377 10.45394592 0.09179688 10.45410156 C-1.02072952 10.4607634 -1.02072952 10.4607634 -2.1557312 10.46755981 C-3.99072266 10.22705078 -3.99072266 10.22705078 -5.99072266 8.22705078 C-6.24072266 5.22705078 -6.24072266 5.22705078 -5.99072266 2.22705078 C-3.99072266 0.22705078 -3.99072266 0.22705078 0 0 Z M-4.99072266 3.22705078 C-4.70088997 6.53388544 -4.70088997 6.53388544 -2.99072266 9.22705078 C-0.17908886 9.3156707 2.6078599 9.34227433 5.41943359 9.32470703 C6.68248573 9.32258461 6.68248573 9.32258461 7.97105408 9.32041931 C10.67133069 9.31480341 13.37152562 9.30224827 16.07177734 9.28955078 C17.89794802 9.28453783 19.72412 9.27997457 21.55029297 9.27587891 C26.03665277 9.26482882 30.52295119 9.24755357 35.00927734 9.22705078 C35.8356611 6.33470763 36.00927734 4.33962647 36.00927734 1.22705078 C30.49171258 1.17769868 24.97427564 1.14135416 19.45654297 1.1171875 C17.57859052 1.10711544 15.70065381 1.09345716 13.82275391 1.07617188 C11.12707644 1.05197625 8.43160588 1.04057995 5.73583984 1.03173828 C4.47170761 1.01625443 4.47170761 1.01625443 3.18203735 1.00045776 C-1.3808 0.78912718 -1.3808 0.78912718 -4.99072266 3.22705078 Z " fill="#2D4583" transform="translate(152.99072265625,218.77294921875)"/>
<path d="M0 0 C0.66 0.33 1.32 0.66 2 1 C1.34 2.98 0.68 4.96 0 7 C15.84 7.33 31.68 7.66 48 8 C48 8.66 48 9.32 48 10 C41.5222714 10.10140493 35.04474739 10.17146717 28.56640625 10.21972656 C26.3625524 10.23984419 24.15875193 10.26714172 21.95507812 10.30175781 C18.78762644 10.35026833 15.62088032 10.37296736 12.453125 10.390625 C10.97480194 10.42159271 10.97480194 10.42159271 9.46661377 10.45318604 C2.65378536 10.45542175 2.65378536 10.45542175 -0.66503906 8.14355469 C-2 6 -2 6 -1.8125 3.3125 C-1 1 -1 1 0 0 Z " fill="#28458D" transform="translate(137,257)"/>
<path d="M0 0 C2.17465009 -0.0268894 4.34440223 -0.10174498 6.51782227 -0.17749023 C16.61190132 -0.3674149 16.61190132 -0.3674149 19.97436523 2.02807617 C22.06957862 4.8337567 22.87915039 7.04077117 22.87915039 10.53540039 C17.78883284 10.58476197 12.69865396 10.62110144 7.6081543 10.64526367 C5.87570774 10.65533415 4.14327823 10.66899128 2.41088867 10.6862793 C-0.076296 10.71048201 -2.56325636 10.72187278 -5.05053711 10.73071289 C-5.82767059 10.74103546 -6.60480408 10.75135803 -7.40548706 10.76199341 C-9.31210454 10.7623931 -11.21815997 10.65772179 -13.12084961 10.53540039 C-15.12084961 8.53540039 -15.12084961 8.53540039 -15.37084961 5.53540039 C-14.73559589 -2.08764421 -5.89965558 0.04846122 0 0 Z M-12.12084961 1.53540039 C-12.50148181 3.86148609 -12.83354906 6.19595303 -13.12084961 8.53540039 C-11.99657326 9.88645184 -11.99657326 9.88645184 -9.06982422 9.64892578 C-7.7209369 9.64876674 -6.37204347 9.64307651 -5.02319336 9.63305664 C-4.31433487 9.63164169 -3.60547638 9.63022675 -2.87513733 9.62876892 C-0.60283249 9.62315482 1.66937514 9.61060002 3.94165039 9.59790039 C5.47875835 9.5928872 7.01586784 9.58832398 8.55297852 9.58422852 C12.32840681 9.57318081 16.1037621 9.5559068 19.87915039 9.53540039 C19.52685615 6.92842303 19.15729446 4.96509994 17.71777344 2.74121094 C14.96729703 0.93738635 12.72233737 1.19816256 9.46118164 1.24243164 C8.20756836 1.25209961 6.95395508 1.26176758 5.66235352 1.27172852 C3.69685547 1.30943359 3.69685547 1.30943359 1.69165039 1.34790039 C0.35637876 1.36295072 -0.97890898 1.37663852 -2.31420898 1.38891602 C-5.58349537 1.42432345 -8.85197054 1.47371149 -12.12084961 1.53540039 Z " fill="#26418A" transform="translate(178.120849609375,237.464599609375)"/>
<path d="M0 0 C2 1.1875 2 1.1875 3 3 C3.1875 6.1875 3.1875 6.1875 3 9 C1.02 9.99 1.02 9.99 -1 11 C-1.309375 10.236875 -1.61875 9.47375 -1.9375 8.6875 C-4.89301161 4.83637881 -8.42100409 4.18074737 -13 3 C-13 3.66 -13 4.32 -13 5 C-13.99 4.67 -14.98 4.34 -16 4 C-10.43753736 -0.66044168 -6.96293487 -1.61017869 0 0 Z " fill="#2246A8" transform="translate(344,267)"/>
<path d="M0 0 C0.91644287 0.00523682 1.83288574 0.01047363 2.77709961 0.01586914 C3.76645508 0.0190918 4.75581055 0.02231445 5.77514648 0.02563477 C6.81606445 0.03401367 7.85698242 0.04239258 8.92944336 0.05102539 C10.49662109 0.05779297 10.49662109 0.05779297 12.09545898 0.06469727 C14.68600996 0.07652627 17.27644895 0.0930085 19.86694336 0.11352539 C19.86694336 0.77352539 19.86694336 1.43352539 19.86694336 2.11352539 C19.20694336 2.11352539 18.54694336 2.11352539 17.86694336 2.11352539 C17.86694336 2.77352539 17.86694336 3.43352539 17.86694336 4.11352539 C16.62557617 4.17411133 15.38420898 4.23469727 14.10522461 4.29711914 C12.46328759 4.38156162 10.82136104 4.46620775 9.17944336 4.55102539 C8.36282227 4.5903418 7.54620117 4.6296582 6.70483398 4.67016602 C2.67038525 4.88250542 -1.19052974 5.15800461 -5.13305664 6.11352539 C-2.83983201 0.15114134 -2.83983201 0.15114134 0 0 Z " fill="#2047A8" transform="translate(328.133056640625,212.886474609375)"/>
<path d="M0 0 C5.65998046 -0.04934926 11.31983636 -0.08569529 16.97998047 -0.10986328 C18.90643494 -0.11993582 20.83287408 -0.13359443 22.75927734 -0.15087891 C25.52445252 -0.17507241 28.289426 -0.18647036 31.0546875 -0.1953125 C31.9193161 -0.20563507 32.7839447 -0.21595764 33.67477417 -0.22659302 C35.78453521 -0.22699106 37.89380718 -0.12265243 40 0 C42 2 42 2 42.125 5.625 C42.08375 6.73875 42.0425 7.8525 42 9 C41.67 9 41.34 9 41 9 C41 7.02 41 5.04 41 3 C21.695 2.505 21.695 2.505 2 2 C1.67 2.99 1.34 3.98 1 5 C0.67 3.35 0.34 1.7 0 0 Z " fill="#324D8F" transform="translate(281,195)"/>
<path d="M0 0 C1.12067871 0.01047363 2.24135742 0.02094727 3.39599609 0.03173828 C5.21357422 0.04140625 5.21357422 0.04140625 7.06787109 0.05126953 C8.33888672 0.06802734 9.60990234 0.08478516 10.91943359 0.10205078 C12.19818359 0.11107422 13.47693359 0.12009766 14.79443359 0.12939453 C17.96128526 0.15302775 21.12776783 0.18597449 24.29443359 0.22705078 C23.96443359 1.21705078 23.63443359 2.20705078 23.29443359 3.22705078 C23.29443359 2.56705078 23.29443359 1.90705078 23.29443359 1.22705078 C10.91943359 1.72205078 10.91943359 1.72205078 -1.70556641 2.22705078 C-2.03556641 3.87705078 -2.36556641 5.52705078 -2.70556641 7.22705078 C-1.69996846 8.45489887 -1.69996846 8.45489887 0.33569336 8.34057617 C1.2102417 8.33533936 2.08479004 8.33010254 2.98583984 8.32470703 C3.93007812 8.32148438 4.87431641 8.31826172 5.84716797 8.31494141 C7.33700195 8.30237305 7.33700195 8.30237305 8.85693359 8.28955078 C9.85402344 8.28503906 10.85111328 8.28052734 11.87841797 8.27587891 C14.35048208 8.26405085 16.82242877 8.24756927 19.29443359 8.22705078 C19.95443359 6.24705078 20.61443359 4.26705078 21.29443359 2.22705078 C23.29443359 5.22705078 23.29443359 5.22705078 22.91943359 7.91455078 C22.61005859 9.05923828 22.61005859 9.05923828 22.29443359 10.22705078 C18.16949208 10.28489786 14.04465415 10.32059485 9.91943359 10.35205078 C8.74380859 10.36880859 7.56818359 10.38556641 6.35693359 10.40283203 C4.67470703 10.4125 4.67470703 10.4125 2.95849609 10.42236328 C1.92160645 10.43283691 0.8847168 10.44331055 -0.18359375 10.45410156 C-2.70556641 10.22705078 -2.70556641 10.22705078 -4.70556641 8.22705078 C-4.95556641 5.22705078 -4.95556641 5.22705078 -4.70556641 2.22705078 C-2.70556641 0.22705078 -2.70556641 0.22705078 0 0 Z " fill="#2D4689" transform="translate(167.70556640625,199.77294921875)"/>
<path d="M0 0 C1.48831242 0.00667405 2.97660807 0.01863442 4.46484375 0.03515625 C5.22345703 0.03966797 5.98207031 0.04417969 6.76367188 0.04882812 C8.64326246 0.06064945 10.52281274 0.07858547 12.40234375 0.09765625 C12.40234375 0.42765625 12.40234375 0.75765625 12.40234375 1.09765625 C7.45234375 1.09765625 2.50234375 1.09765625 -2.59765625 1.09765625 C-2.90703125 2.89203125 -3.21640625 4.68640625 -3.53515625 6.53515625 C-4.47265625 11.97265625 -4.47265625 11.97265625 -5.59765625 13.09765625 C-5.59765625 15.73765625 -5.59765625 18.37765625 -5.59765625 21.09765625 C2.32234375 21.42765625 10.24234375 21.75765625 18.40234375 22.09765625 C18.40234375 22.42765625 18.40234375 22.75765625 18.40234375 23.09765625 C14.08985766 23.12652162 9.77739613 23.1444088 5.46484375 23.16015625 C4.23314453 23.16853516 3.00144531 23.17691406 1.73242188 23.18554688 C0.56259766 23.18876953 -0.60722656 23.19199219 -1.8125 23.1953125 C-3.43853149 23.20316772 -3.43853149 23.20316772 -5.09741211 23.21118164 C-7.59765625 23.09765625 -7.59765625 23.09765625 -8.59765625 22.09765625 C-8.43890063 0.22906896 -8.43890063 0.22906896 0 0 Z " fill="#020827" transform="translate(331.59765625,217.90234375)"/>
<path d="M0 0 C0.66 0 1.32 0 2 0 C1.67 5.28 1.34 10.56 1 16 C8.92 16.33 16.84 16.66 25 17 C25 17.33 25 17.66 25 18 C20.95839444 18.05831395 16.91689795 18.09370212 12.875 18.125 C11.73289062 18.14175781 10.59078125 18.15851563 9.4140625 18.17578125 C7.75117188 18.18544922 7.75117188 18.18544922 6.0546875 18.1953125 C5.03874512 18.20578613 4.02280273 18.21625977 2.97607422 18.22705078 C-0.28288429 17.97841818 -2.95115207 17.14878364 -6 16 C-6.33 16.66 -6.66 17.32 -7 18 C-6.67 15.36 -6.34 12.72 -6 10 C-5.01 10.99 -4.02 11.98 -3 13 C-0.96834048 8.66579301 -0.47939368 4.71403788 0 0 Z " fill="#223E85" transform="translate(323,224)"/>
<path d="M0 0 C1.25541557 3.76624671 0.37061958 5.37188934 -1 9 C-2.32 9 -3.64 9 -5 9 C-5.66 10.65 -6.32 12.3 -7 14 C-8.32 13.34 -9.64 12.68 -11 12 C-10.40364189 8.42185133 -9.000066 6.45577139 -6.625 3.75 C-6.01914063 3.04359375 -5.41328125 2.3371875 -4.7890625 1.609375 C-3 0 -3 0 0 0 Z " fill="#024AAB" transform="translate(259,190)"/>
<path d="M0 0 C2.0625 0.25 2.0625 0.25 4 1 C4.33 1.66 4.66 2.32 5 3 C4.01 3 3.02 3 2 3 C2.27034634 5.43717258 2.27034634 5.43717258 3 8 C3.99 8.66 4.98 9.32 6 10 C6 10.99 6 11.98 6 13 C6.62599617 14.68236471 7.28752268 16.3523962 8 18 C4 14 0 10 -4 6 C-2.84826645 3.53199953 -1.95216435 1.95216435 0 0 Z " fill="#0F4998" transform="translate(219,201)"/>
<path d="M0 0 C0.69416016 -0.020625 1.38832031 -0.04125 2.10351562 -0.0625 C4.12109375 -0.078125 4.12109375 -0.078125 7.5625 0.25 C9.5625 3.25 9.5625 3.25 9.3125 6.375 C9.065 7.32375 8.8175 8.2725 8.5625 9.25 C5.59394127 10.73427936 2.86338341 10.45941537 -0.4375 10.5 C-1.695625 10.52578125 -2.95375 10.5515625 -4.25 10.578125 C-5.301875 10.46984375 -6.35375 10.3615625 -7.4375 10.25 C-9.4375 7.25 -9.4375 7.25 -9.125 4.125 C-7.86290698 -1.15284352 -4.74178959 0.03502707 0 0 Z M-6.4375 2.25 C-6.60416667 5.25 -6.60416667 5.25 -6.4375 8.25 C-5.35580354 9.55547755 -5.35580354 9.55547755 -2.75 9.3828125 C-1.656875 9.38023437 -0.56375 9.37765625 0.5625 9.375 C1.655625 9.37757813 2.74875 9.38015625 3.875 9.3828125 C6.48080354 9.55547755 6.48080354 9.55547755 7.5625 8.25 C7.72916667 5.25 7.72916667 5.25 7.5625 2.25 C6.48080354 0.94452245 6.48080354 0.94452245 3.875 1.1171875 C2.781875 1.11976563 1.68875 1.12234375 0.5625 1.125 C-0.530625 1.12242187 -1.62375 1.11984375 -2.75 1.1171875 C-5.35580354 0.94452245 -5.35580354 0.94452245 -6.4375 2.25 Z " fill="#274088" transform="translate(140.4375,237.75)"/>
<path d="M0 0 C0.66 0.33 1.32 0.66 2 1 C2 1.66 2 2.32 2 3 C1.01 3 0.02 3 -1 3 C0.09025348 7.17930501 1.41364286 11.03110791 3.125 15 C4.89320975 19.28299694 5.39966093 22.40389931 5 27 C4.01 27 3.02 27 2 27 C2.33 26.67 2.66 26.34 3 26 C2.58923028 20.77735645 1.21176359 16.75619294 -1.0625 12.0625 C-2.031875 10.061875 -3.00125 8.06125 -4 6 C-9.28 5.67 -14.56 5.34 -20 5 C-20 4.67 -20 4.34 -20 4 C-14.06 4 -8.12 4 -2 4 C-2 3.34 -2 2.68 -2 2 C-1.34 2 -0.68 2 0 2 C0 1.34 0 0.68 0 0 Z " fill="#26438F" transform="translate(348,213)"/>
<path d="M0 0 C0.33 3.96 0.66 7.92 1 12 C1.66 12 2.32 12 3 12 C3 11.34 3 10.68 3 10 C4.32 10 5.64 10 7 10 C7 10.99 7 11.98 7 13 C0.77777778 13.47863248 0.77777778 13.47863248 -2.4375 11.5 C-4.71029038 7.86353539 -4.28281164 5.24217465 -4 1 C-2 0 -2 0 0 0 Z " fill="#2246AC" transform="translate(329,276)"/>
<path d="M0 0 C0.66 0.66 1.32 1.32 2 2 C-2.08443115 3.53166168 -5.79455657 2.63081652 -10 2 C-10.33 2.99 -10.66 3.98 -11 5 C-11.66 4.67 -12.32 4.34 -13 4 C-13.103125 4.598125 -13.20625 5.19625 -13.3125 5.8125 C-14 8 -14 8 -15.5 9.375 C-17.69870262 11.75692784 -17.74544057 13.81800709 -18 17 C-17.63141012 19.76864953 -17.63141012 19.76864953 -17 22 C-17.66 21.67 -18.32 21.34 -19 21 C-20.40245839 15.28999083 -20.15492484 11.88488492 -17.24609375 6.76171875 C-12.65640996 0.27285546 -7.35572885 -0.3502728 0 0 Z " fill="#274291" transform="translate(222,265)"/>
<path d="M0 0 C0.66 0 1.32 0 2 0 C6.32325376 8.64650753 3.67948926 21.99183034 2 31 C1.67 31 1.34 31 1 31 C1.00523682 30.34515625 1.01047363 29.6903125 1.01586914 29.015625 C1.036827 26.01042667 1.0497195 23.00524379 1.0625 20 C1.07087891 18.97003906 1.07925781 17.94007813 1.08789062 16.87890625 C1.10613637 11.14974387 0.86475384 5.66515899 0 0 Z " fill="#274498" transform="translate(283,200)"/>
<path d="M0 0 C0.99 0.33 1.98 0.66 3 1 C2.57910004 6.60461531 2.08386889 11.72086547 0 17 C-0.99 16.01 -1.98 15.02 -3 14 C-2.5359375 12.7625 -2.5359375 12.7625 -2.0625 11.5 C-0.88122417 7.60873845 -0.41775832 4.03833047 0 0 Z " fill="#2146A9" transform="translate(321,221)"/>
<path d="M0 0 C0.99 0.33 1.98 0.66 3 1 C1.54234835 2.62561151 0.08385614 4.25046934 -1.375 5.875 C-2.18710937 6.77992188 -2.99921875 7.68484375 -3.8359375 8.6171875 C-5.19076205 10.10896183 -6.57505435 11.57505435 -8 13 C-7.67 11.35 -7.34 9.7 -7 8 C-7.66 7.67 -8.32 7.34 -9 7 C-7.57277341 5.8001722 -6.13284224 4.6154424 -4.6875 3.4375 C-3.88699219 2.77621094 -3.08648437 2.11492187 -2.26171875 1.43359375 C-1.51535156 0.96050781 -0.76898438 0.48742187 0 0 Z " fill="#144690" transform="translate(276,174)"/>
<path d="M0 0 C0.66 0 1.32 0 2 0 C1.67 4.29 1.34 8.58 1 13 C4.63 13 8.26 13 12 13 C12 13.33 12 13.66 12 14 C7.71 14 3.42 14 -1 14 C-1.87807504 9.60962482 -2.08226278 8.20656508 -1.0625 4.1875 C-0.86785156 3.39730469 -0.67320312 2.60710937 -0.47265625 1.79296875 C-0.31667969 1.20128906 -0.16070312 0.60960937 0 0 Z " fill="#274389" transform="translate(311,262)"/>
<path d="M0 0 C0.66 0 1.32 0 2 0 C1.48517081 5.852795 0.54642808 11.3297637 -1 17 C-1.33 17 -1.66 17 -2 17 C-3.70159453 5.47835991 -3.70159453 5.47835991 0 0 Z " fill="#254694" transform="translate(365,254)"/>
<path d="M0 0 C0.66 0.99 1.32 1.98 2 3 C1.67 4.65 1.34 6.3 1 8 C-6.59 8 -14.18 8 -22 8 C-22 7.67 -22 7.34 -22 7 C-12.1 6.505 -12.1 6.505 -2 6 C-1.34 4.02 -0.68 2.04 0 0 Z " fill="#274392" transform="translate(189,202)"/>
<path d="M0 0 C0.66 0 1.32 0 2 0 C0.84479446 3.46561662 -0.71066892 4.39446973 -3.5 6.59375 C-5.75013033 8.70324718 -6.82326265 11.18890523 -8 14 C-8.33 14 -8.66 14 -9 14 C-9.33663062 10.29706315 -9.47736015 8.60465619 -7.125 5.625 C-5 4 -5 4 -3 4 C-3 3.34 -3 2.68 -3 2 C-2.01 2 -1.02 2 0 2 C0 1.34 0 0.68 0 0 Z " fill="#254695" transform="translate(210,263)"/>
<path d="M0 0 C0.66 0.33 1.32 0.66 2 1 C2.59772099 3.9829661 2.74337815 6.96330805 3 10 C6.63 10 10.26 10 14 10 C14 10.33 14 10.66 14 11 C12.06372231 11.10807131 10.12572244 11.1856225 8.1875 11.25 C6.56908203 11.31960938 6.56908203 11.31960938 4.91796875 11.390625 C2 11 2 11 0.09375 9.21875 C-1.51439497 5.95651305 -0.73390592 3.46937346 0 0 Z " fill="#2C438E" transform="translate(187,267)"/>
<path d="M0 0 C4.62 0.99 9.24 1.98 14 3 C14 3.33 14 3.66 14 4 C12.35 4 10.7 4 9 4 C9 4.66 9 5.32 9 6 C4.545 5.01 4.545 5.01 0 4 C0 2.68 0 1.36 0 0 Z " fill="#1E3A86" transform="translate(217,259)"/>
<path d="M0 0 C3.465 1.485 3.465 1.485 7 3 C6.34 4.65 5.68 6.3 5 8 C4.34 8 3.68 8 3 8 C3 7.34 3 6.68 3 6 C2.34 6 1.68 6 1 6 C0.67 4.02 0.34 2.04 0 0 Z " fill="#1D40A7" transform="translate(222,271)"/>
<path d="M0 0 C0.66 0.33 1.32 0.66 2 1 C0.69181533 3.16938141 -0.62125924 5.3355152 -1.9375 7.5 C-2.31068359 8.12003906 -2.68386719 8.74007812 -3.06835938 9.37890625 C-4.0181984 10.93629997 -5.00613311 12.4703275 -6 14 C-6.33 14 -6.66 14 -7 14 C-7 12.35 -7 10.7 -7 9 C-6.34 9 -5.68 9 -5 9 C-5 8.01 -5 7.02 -5 6 C-4.34 6 -3.68 6 -3 6 C-3 5.01 -3 4.02 -3 3 C-1.5 1.3125 -1.5 1.3125 0 0 Z " fill="#114990" transform="translate(246,214)"/>
<path d="M0 0 C5.94 0 11.88 0 18 0 C18 0.33 18 0.66 18 1 C16.51886719 1.03867187 16.51886719 1.03867187 15.0078125 1.078125 C13.72648438 1.13484375 12.44515625 1.1915625 11.125 1.25 C9.84882813 1.29640625 8.57265625 1.3428125 7.2578125 1.390625 C3.90811895 1.62555056 3.90811895 1.62555056 2.5546875 4.046875 C2.37164062 4.69140625 2.18859375 5.3359375 2 6 C0 3 0 3 0 0 Z " fill="#254392" transform="translate(226,263)"/>
<path d="M0 0 C0.66 0.33 1.32 0.66 2 1 C2.33 1.99 2.66 2.98 3 4 C1.68 5.32 0.36 6.64 -1 8 C-1.99 7.67 -2.98 7.34 -4 7 C-3.34 7 -2.68 7 -2 7 C-2.04125 6.21625 -2.0825 5.4325 -2.125 4.625 C-2 2 -2 2 0 0 Z " fill="#2246AC" transform="translate(343,279)"/>
<path d="M0 0 C2.5625 1.875 2.5625 1.875 5 5 C5.1465164 8.42743722 4.65867457 11.64141186 4 15 C3.67 15 3.34 15 3 15 C2.92652344 13.93458984 2.92652344 13.93458984 2.8515625 12.84765625 C2.73941406 11.46900391 2.73941406 11.46900391 2.625 10.0625 C2.55539062 9.14597656 2.48578125 8.22945312 2.4140625 7.28515625 C2.27742188 6.53105469 2.14078125 5.77695313 2 5 C1.34 4.67 0.68 4.34 0 4 C0 2.68 0 1.36 0 0 Z " fill="#243F84" transform="translate(364,238)"/>
<path d="M0 0 C1.51553092 3.97450493 0.49888623 7.20481149 -0.4375 11.25 C-0.72496094 12.51328125 -1.01242187 13.7765625 -1.30859375 15.078125 C-1.53675781 16.04234375 -1.76492188 17.0065625 -2 18 C-2.33 18 -2.66 18 -3 18 C-2.88602456 15.56152549 -2.75929026 13.12486826 -2.625 10.6875 C-2.5940625 9.99720703 -2.563125 9.30691406 -2.53125 8.59570312 C-2.31875081 4.93009211 -2.08066139 3.12099208 0 0 Z " fill="#29458F" transform="translate(319,214)"/>
<path d="M0 0 C1.98 0.495 1.98 0.495 4 1 C4 2.65 4 4.3 4 6 C3.01 6.33 2.02 6.66 1 7 C1 6.34 1 5.68 1 5 C0.34 5 -0.32 5 -1 5 C-0.67 3.35 -0.34 1.7 0 0 Z " fill="#21439A" transform="translate(213,257)"/>
<path d="M0 0 C0.66 0 1.32 0 2 0 C1.50130596 5.36891879 0.97772468 10.69235173 0 16 C-0.33 16 -0.66 16 -1 16 C-1.38063221 13.6739143 -1.71269945 11.33944736 -2 9 C-1.67 8.67 -1.34 8.34 -1 8 C-0.76924918 6.65252916 -0.58846937 5.29622435 -0.4375 3.9375 C-0.293125 2.638125 -0.14875 1.33875 0 0 Z " fill="#27418F" transform="translate(323,224)"/>
<path d="M0 0 C0.66 0 1.32 0 2 0 C4 3 4 3 3.625 5.1875 C3.41875 5.785625 3.2125 6.38375 3 7 C1.68 6.34 0.36 5.68 -1 5 C-0.67 3.35 -0.34 1.7 0 0 Z " fill="#223F97" transform="translate(224,267)"/>
<path d="M0 0 C0.99 0.33 1.98 0.66 3 1 C1.25 4.875 1.25 4.875 -1 6 C-2.99960012 6.039992 -5.00047242 6.04346799 -7 6 C-5 4 -5 4 -2.9375 3.5625 C-1.9784375 3.2840625 -1.9784375 3.2840625 -1 3 C-0.67 2.01 -0.34 1.02 0 0 Z " fill="#2B4493" transform="translate(360,270)"/>
<path d="M0 0 C3.5786304 1.65167557 6.74820188 3.78286492 10 6 C9.67 6.66 9.34 7.32 9 8 C7.68121422 7.23997083 6.3701316 6.46656347 5.0625 5.6875 C4.33160156 5.25824219 3.60070312 4.82898438 2.84765625 4.38671875 C1 3 1 3 0 0 Z " fill="#020519" transform="translate(203,248)"/>
<path d="M0 0 C4.95 0.33 9.9 0.66 15 1 C15 1.33 15 1.66 15 2 C10.71 2 6.42 2 2 2 C1.67 2.99 1.34 3.98 1 5 C0.67 3.35 0.34 1.7 0 0 Z " fill="#2B448F" transform="translate(281,195)"/>
<path d="M0 0 C2.79872437 2.52788007 4.45773019 4.20411134 5 8 C2.53199953 6.84826645 0.95216435 5.95216435 -1 4 C-0.625 1.875 -0.625 1.875 0 0 Z " fill="#2A4698" transform="translate(350,216)"/>
<path d="M0 0 C2.5 2.3125 2.5 2.3125 5 5 C5 5.99 5 6.98 5 8 C3.35 8 1.7 8 0 8 C0.66 7.67 1.32 7.34 2 7 C1.34 4.69 0.68 2.38 0 0 Z " fill="#213C81" transform="translate(196,240)"/>
<path d="M0 0 C0.99 0.99 1.98 1.98 3 3 C2.34 4.32 1.68 5.64 1 7 C0.01 6.34 -0.98 5.68 -2 5 C-2 4.34 -2 3.68 -2 3 C-1.34 2.67 -0.68 2.34 0 2 C0 1.34 0 0.68 0 0 Z " fill="#25459C" transform="translate(355,224)"/>
<path d="M0 0 C0.99 0.33 1.98 0.66 3 1 C0.03 3.475 0.03 3.475 -3 6 C-3 4.68 -3 3.36 -3 2 C-2.01 1.34 -1.02 0.68 0 0 Z " fill="#1D4075" transform="translate(276,174)"/>
<path d="M0 0 C0.99 0.33 1.98 0.66 3 1 C2.01 2.485 2.01 2.485 1 4 C-1.625 4.1875 -1.625 4.1875 -4 4 C-2.68 2.68 -1.36 1.36 0 0 Z " fill="#24459B" transform="translate(304,273)"/>
<path d="M0 0 C3.26954202 0.56371414 4.82575883 1.49962266 7 4 C4.36 3.67 1.72 3.34 -1 3 C-0.67 2.01 -0.34 1.02 0 0 Z " fill="#243F86" transform="translate(206,253)"/>
<path d="M0 0 C0.66 0.99 1.32 1.98 2 3 C0.1875 4.5625 0.1875 4.5625 -2 6 C-2.99 5.67 -3.98 5.34 -5 5 C-3.35 3.35 -1.7 1.7 0 0 Z " fill="#0C4A9A" transform="translate(256,190)"/>
</svg>
